<svg width="57" height="57" viewBox="0 0 57 57" fill="none" xmlns="http://www.w3.org/2000/svg">
<rect width="57" height="57" rx="15" fill="#4FD6D4"/>
<path fill-rule="evenodd" clip-rule="evenodd" d="M17.75 34.0875V24.5713H40.25V34.1638C40.25 38.0875 37.7802 40.5 33.8285 40.5H24.1592C20.2445 40.5 17.75 38.0375 17.75 34.0875ZM29.0244 31.0125C28.4564 31.0387 27.9871 30.5875 27.9624 30.0138C27.9624 29.4387 28.407 28.9637 28.975 28.9375C29.5307 28.9375 29.9876 29.3763 30 29.9375C30.0247 30.5138 29.5801 30.9887 29.0244 31.0125ZM34.0633 35.6125C33.4952 35.6 33.0383 35.125 33.0383 34.55C33.026 33.975 33.4829 33.5013 34.051 33.4888H34.0633C34.6437 33.4888 35.113 33.9638 35.113 34.55C35.113 35.1375 34.6437 35.6125 34.0633 35.6125ZM27.9624 34.5501C27.9871 35.1251 28.4564 35.5763 29.0244 35.5501C29.5801 35.5263 30.0247 35.0513 30 34.4763C29.9876 33.9138 29.5307 33.4751 28.975 33.4751C28.407 33.5013 27.9624 33.9751 27.9624 34.5501ZM23.9493 31.0126C23.3812 31.0388 22.9119 30.5876 22.8872 30.0138C22.8872 29.4388 23.3318 28.9638 23.8999 28.9376C24.4556 28.9376 24.9125 29.3763 24.9248 29.9376C24.9495 30.5138 24.505 30.9888 23.9493 31.0126ZM22.8749 34.5501C22.8996 35.1251 23.3689 35.5763 23.9369 35.55C24.4926 35.5263 24.9372 35.0513 24.9125 34.4763C24.9002 33.9138 24.4432 33.4751 23.8875 33.4751C23.3195 33.5013 22.8749 33.9751 22.8749 34.5501ZM33.0503 30.0012C33.0503 29.4262 33.4949 28.9637 34.0629 28.9512C34.6186 28.9512 35.0632 29.3999 35.0879 29.9512C35.1002 30.5262 34.6557 31.0012 34.1 31.0124C33.5319 31.0249 33.0626 30.5874 33.0503 30.0137V30.0012Z" fill="white"/>
<path opacity="0.4" d="M17.7544 24.5711C17.7704 23.8373 17.8322 22.3811 17.9483 21.9123C18.541 19.2761 20.5539 17.6011 23.4313 17.3623H34.5701C37.4228 17.6136 39.4604 19.2998 40.0531 21.9123C40.168 22.3686 40.2297 23.8361 40.2458 24.5711H17.7544Z" fill="white"/>
<path d="M24.3811 21.2375C24.9244 21.2375 25.3319 20.8263 25.3319 20.275V16.4638C25.3319 15.9125 24.9244 15.5 24.3811 15.5C23.8377 15.5 23.4302 15.9125 23.4302 16.4638V20.275C23.4302 20.8263 23.8377 21.2375 24.3811 21.2375Z" fill="white"/>
<path d="M33.6188 21.2375C34.1499 21.2375 34.5697 20.8263 34.5697 20.275V16.4638C34.5697 15.9125 34.1499 15.5 33.6188 15.5C33.0755 15.5 32.668 15.9125 32.668 16.4638V20.275C32.668 20.8263 33.0755 21.2375 33.6188 21.2375Z" fill="white"/>
</svg>
