<svg width="57" height="57" viewBox="0 0 57 57" fill="none" xmlns="http://www.w3.org/2000/svg">
<rect width="57" height="57" rx="15" fill="#FF889E"/>
<path d="M29 15C29 14.4696 29.2107 13.9609 29.5858 13.5858C29.9609 13.2107 30.4696 13 31 13H37C37.5304 13 38.0391 13.2107 38.4142 13.5858C38.7893 13.9609 39 14.4696 39 15V23H37V15H31V21C31 21.5304 30.7893 22.0391 30.4142 22.4142C30.0391 22.7893 29.5304 23 29 23H23V29C23 29.5304 22.7893 30.0391 22.4142 30.4142C22.0391 30.7893 21.5304 31 21 31H15V37H23V39H15C14.4696 39 13.9609 38.7893 13.5858 38.4142C13.2107 38.0391 13 37.5304 13 37V31C13 30.4696 13.2107 29.9609 13.5858 29.5858C13.9609 29.2107 14.4696 29 15 29H21V23C21 22.4696 21.2107 21.9609 21.5858 21.5858C21.9609 21.2107 22.4696 21 23 21H29V15ZM35 25C34.4696 25 33.9609 25.2107 33.5858 25.5858C33.2107 25.9609 33 26.4696 33 27V33H27C26.4696 33 25.9609 33.2107 25.5858 33.5858C25.2107 33.9609 25 34.4696 25 35V41C25 41.5304 25.2107 42.0391 25.5858 42.4142C25.9609 42.7893 26.4696 43 27 43H38C39.3261 43 40.5979 42.4732 41.5355 41.5355C42.4732 40.5979 43 39.3261 43 38V27C43 26.4696 42.7893 25.9609 42.4142 25.5858C42.0391 25.2107 41.5304 25 41 25H35ZM35 27H41V38C41 38.7956 40.6839 39.5587 40.1213 40.1213C39.5587 40.6839 38.7956 41 38 41H27V35H33C33.5304 35 34.0391 34.7893 34.4142 34.4142C34.7893 34.0391 35 33.5304 35 33V27Z" fill="white"/>
</svg>
