<svg width="57" height="57" viewBox="0 0 57 57" fill="none" xmlns="http://www.w3.org/2000/svg">
<rect width="57" height="57" rx="15" fill="#F9BF3A"/>
<path opacity="0.4" d="M30.2204 16.892L33.0035 22.4849C33.2085 22.8901 33.5999 23.1715 34.0512 23.234L40.3025 24.1445C40.6676 24.1957 40.9989 24.3883 41.2227 24.6822C41.444 24.9724 41.5391 25.3401 41.4853 25.7015C41.4415 26.0016 41.3003 26.2793 41.084 26.4919L36.5542 30.8829C36.2229 31.1893 36.0729 31.6433 36.1529 32.0872L37.2681 38.2604C37.3869 39.0058 36.8931 39.7086 36.1529 39.8499C35.8478 39.8987 35.5353 39.8474 35.2602 39.7074L29.684 36.8021C29.2702 36.5933 28.7813 36.5933 28.3675 36.8021L22.7913 39.7074C22.1061 40.0713 21.2572 39.8237 20.8759 39.1483C20.7346 38.8794 20.6846 38.573 20.7308 38.2741L21.8461 32.0998C21.9261 31.657 21.7748 31.2005 21.4447 30.8941L16.915 26.5057C16.3762 25.9854 16.3599 25.1287 16.8788 24.5897C16.89 24.5784 16.9025 24.5659 16.915 24.5534C17.1301 24.3346 17.4126 24.1957 17.7177 24.1595L23.969 23.2477C24.4191 23.184 24.8105 22.9051 25.0168 22.4974L27.6998 16.892C27.9386 16.4118 28.4337 16.1129 28.9714 16.1254H29.1389C29.6052 16.1817 30.0116 16.4706 30.2204 16.892Z" fill="white"/>
<path d="M28.99 36.6464C28.7479 36.6539 28.512 36.719 28.2998 36.8353L22.7509 39.7339C22.0719 40.0579 21.2595 39.8065 20.8788 39.1572C20.7378 38.892 20.6866 38.588 20.734 38.2902L21.8423 32.1289C21.9172 31.6811 21.7674 31.2257 21.4417 30.9104L16.9099 26.5231C16.372 25.9964 16.362 25.132 16.8887 24.5928C16.8962 24.5853 16.9024 24.579 16.9099 24.5727C17.1246 24.3601 17.4017 24.22 17.7 24.1762L23.9565 23.2554C24.4096 23.1979 24.8027 22.9151 25.0024 22.5048L27.722 16.8289C27.9803 16.371 28.4758 16.0983 29 16.1271C28.99 16.4986 28.99 36.3937 28.99 36.6464Z" fill="white"/>
</svg>
